<svg xmlns="http://www.w3.org/2000/svg" width="24" height="24" viewBox="0 0 24 24" fill="none" stroke="currentColor" stroke-width="2" stroke-linecap="round" stroke-linejoin="round">
  <path d="M15.1,1.9l-4.2,4.2l-1.4-1.4l-4.2,4.2l-1.4-1.4L1,10.7l1.4,1.4l4.2-4.2l1.4,1.4l4.2-4.2l1.4,1.4l3.5-3.5L15.1,1.9z"/>
  <path d="M19.3,5.1l-4.2,4.2l-1.4-1.4l-4.2,4.2l-1.4-1.4L5.3,13.3l1.4,1.4l4.2-4.2l1.4,1.4l4.2-4.2l1.4,1.4l3.5-3.5L19.3,5.1z"/>
  <path d="M22,10.7l-4.2,4.2l-1.4-1.4l-4.2,4.2l-1.4-1.4l-2.8,2.8l1.4,1.4l4.2-4.2l1.4,1.4l4.2-4.2l1.4,1.4L22,10.7z"/>
</svg>
